solid STL generated by MeshLab
  facet normal -1.000000e+00  0.000000e+00  0.000000e+00
    outer loop
      vertex 100 100 1
      vertex 100 100 1
      vertex 100 100 100
    endloop
  endfacet
  facet normal -1.000000e+00  0.000000e+00  0.000000e+00
    outer loop
      vertex 100 100 1
      vertex 100 100 1
      vertex 100 100 1
    endloop
  endfacet
  facet normal -1.000000e+00  0.000000e+00  0.000000e+00
    outer loop
      vertex  -2.527743e+00  3.822705e+00  4.296862e-01
      vertex  -2.527743e+00  3.822705e+00  2.429686e+00
      vertex  -2.527743e+00  5.822705e+00  2.429686e+00
    endloop
  endfacet
  facet normal -1.000000e+00  0.000000e+00 -0.000000e+00
    outer loop
      vertex  -2.527743e+00  5.822705e+00  2.429686e+00
      vertex  -2.527743e+00  5.822705e+00  4.296862e-01
      vertex  -2.527743e+00  3.822705e+00  4.296862e-01
    endloop
  endfacet
  facet normal  0.000000e+00  1.000000e+00  0.000000e+00
    outer loop
      vertex  -2.527743e+00  5.822705e+00  4.296862e-01
      vertex  -2.527743e+00  5.822705e+00  2.429686e+00
      vertex  -5.277433e-01  5.822705e+00  2.429686e+00
    endloop
  endfacet
  facet normal  0.000000e+00  1.000000e+00  0.000000e+00
    outer loop
      vertex  -5.277433e-01  5.822705e+00  2.429686e+00
      vertex  -5.277433e-01  5.822705e+00  4.296862e-01
      vertex  -2.527743e+00  5.822705e+00  4.296862e-01
    endloop
  endfacet
  facet normal  1.000000e+00  0.000000e+00 -0.000000e+00
    outer loop
      vertex  -5.277433e-01  5.822705e+00  4.296862e-01
      vertex  -5.277433e-01  5.822705e+00  2.429686e+00
      vertex  -5.277433e-01  3.822705e+00  2.429686e+00
    endloop
  endfacet
  facet normal  1.000000e+00  0.000000e+00  0.000000e+00
    outer loop
      vertex  -5.277433e-01  3.822705e+00  2.429686e+00
      vertex  -5.277433e-01  3.822705e+00  4.296862e-01
      vertex  -5.277433e-01  5.822705e+00  4.296862e-01
    endloop
  endfacet
  facet normal  0.000000e+00 -1.000000e+00  0.000000e+00
    outer loop
      vertex  -2.527743e+00  3.822705e+00  2.429686e+00
      vertex  -2.527743e+00  3.822705e+00  4.296862e-01
      vertex  -5.277433e-01  3.822705e+00  4.296862e-01
    endloop
  endfacet
  facet normal  0.000000e+00 -1.000000e+00  0.000000e+00
    outer loop
      vertex  -5.277433e-01  3.822705e+00  4.296862e-01
      vertex  -5.277433e-01  3.822705e+00  2.429686e+00
      vertex  -2.527743e+00  3.822705e+00  2.429686e+00
    endloop
  endfacet
  facet normal  0.000000e+00  0.000000e+00 -1.000000e+00
    outer loop
      vertex  -5.277433e-01  3.822705e+00  4.296862e-01
      vertex  -2.527743e+00  3.822705e+00  4.296862e-01
      vertex  -2.527743e+00  5.822705e+00  4.296862e-01
    endloop
  endfacet
  facet normal  0.000000e+00  0.000000e+00 -1.000000e+00
    outer loop
      vertex  -2.527743e+00  5.822705e+00  4.296862e-01
      vertex  -5.277433e-01  5.822705e+00  4.296862e-01
      vertex  -5.277433e-01  3.822705e+00  4.296862e-01
    endloop
  endfacet
  facet normal  0.000000e+00  0.000000e+00  1.000000e+00
    outer loop
      vertex  -5.277433e-01  5.822705e+00  2.429686e+00
      vertex  -2.527743e+00  5.822705e+00  2.429686e+00
      vertex  -2.527743e+00  3.822705e+00  2.429686e+00
    endloop
  endfacet
  facet normal  0.000000e+00  0.000000e+00  1.000000e+00
    outer loop
      vertex  -2.527743e+00  3.822705e+00  2.429686e+00
      vertex  -5.277433e-01  3.822705e+00  2.429686e+00
      vertex  -5.277433e-01  5.822705e+00  2.429686e+00
    endloop
  endfacet
endsolid vcg
