solid STL generated by MeshLab
  facet normal -1.000000e+00  0.000000e+00  0.000000e+00
    outer loop
      vertex  -9.900769e-01 -1.289163e+00  1.843326e+00
      vertex  -9.900769e-01 -1.289163e+00 -1.566736e-01
      vertex  -9.900769e-01  7.108366e-01  1.843326e+00
    endloop
  endfacet
  facet normal -1.000000e+00  0.000000e+00 -0.000000e+00
    outer loop
      vertex  -9.900769e-01  7.108366e-01  1.843326e+00
      vertex  -9.900769e-01  7.108366e-01 -1.566736e-01
      vertex  -9.900769e-01 -1.289163e+00 -1.566736e-01
    endloop
  endfacet
  facet normal  0.000000e+00  1.000000e+00  0.000000e+00
    outer loop
      vertex  -9.900769e-01  7.108366e-01 -1.566736e-01
      vertex  -9.900769e-01  7.108366e-01  1.843326e+00
      vertex   1.009923e+00  7.108366e-01  1.843326e+00
    endloop
  endfacet
  facet normal  0.000000e+00  1.000000e+00  0.000000e+00
    outer loop
      vertex   1.009923e+00  7.108366e-01  1.843326e+00
      vertex   1.009923e+00  7.108366e-01 -1.566736e-01
      vertex  -9.900769e-01  7.108366e-01 -1.566736e-01
    endloop
  endfacet
  facet normal  1.000000e+00  0.000000e+00 -0.000000e+00
    outer loop
      vertex   1.009923e+00  7.108366e-01 -1.566736e-01
      vertex   1.009923e+00  7.108366e-01  1.843326e+00
      vertex   1.009923e+00 -1.289163e+00  1.843326e+00
    endloop
  endfacet
  facet normal  1.000000e+00  0.000000e+00  0.000000e+00
    outer loop
      vertex   1.009923e+00 -1.289163e+00  1.843326e+00
      vertex   1.009923e+00 -1.289163e+00 -1.566736e-01
      vertex   1.009923e+00  7.108366e-01 -1.566736e-01
    endloop
  endfacet
  facet normal  0.000000e+00 -1.000000e+00  0.000000e+00
    outer loop
      vertex  -9.900769e-01 -1.289163e+00  1.843326e+00
      vertex  -9.900769e-01 -1.289163e+00 -1.566736e-01
      vertex   1.009923e+00 -1.289163e+00 -1.566736e-01
    endloop
  endfacet
  facet normal  0.000000e+00 -1.000000e+00  0.000000e+00
    outer loop
      vertex   1.009923e+00 -1.289163e+00 -1.566736e-01
      vertex   1.009923e+00 -1.289163e+00  1.843326e+00
      vertex  -9.900769e-01 -1.289163e+00  1.843326e+00
    endloop
  endfacet
  facet normal  0.000000e+00  0.000000e+00 -1.000000e+00
    outer loop
      vertex   1.009923e+00 -1.289163e+00 -1.566736e-01
      vertex  -9.900769e-01 -1.289163e+00 -1.566736e-01
      vertex  -9.900769e-01  7.108366e-01 -1.566736e-01
    endloop
  endfacet
  facet normal  0.000000e+00  0.000000e+00 -1.000000e+00
    outer loop
      vertex  -9.900769e-01  7.108366e-01 -1.566736e-01
      vertex   1.009923e+00  7.108366e-01 -1.566736e-01
      vertex   1.009923e+00 -1.289163e+00 -1.566736e-01
    endloop
  endfacet
  facet normal  0.000000e+00  0.000000e+00  1.000000e+00
    outer loop
      vertex   1.009923e+00  7.108366e-01  1.843326e+00
      vertex  -9.900769e-01  7.108366e-01  1.843326e+00
      vertex  -9.900769e-01 -1.289163e+00  1.843326e+00
    endloop
  endfacet
  facet normal  0.000000e+00  0.000000e+00  1.000000e+00
    outer loop
      vertex  -9.900769e-01 -1.289163e+00  1.843326e+00
      vertex   1.009923e+00 -1.289163e+00  1.843326e+00
      vertex   1.009923e+00  7.108366e-01  1.843326e+00
    endloop
  endfacet
endsolid vcg
